<svg id="Layer_5" enable-background="new 0 0 64 64" height="512" viewBox="0 0 64 64" width="512" xmlns="http://www.w3.org/2000/svg"><path d="m45 23c2.206 0 4-1.794 4-4s-1.794-4-4-4-4 1.794-4 4 1.794 4 4 4zm0-6c1.103 0 2 .897 2 2s-.897 2-2 2-2-.897-2-2 .897-2 2-2z"/><path d="m23 33c-1.103 0-2-.897-2-2h-2c0 2.206 1.794 4 4 4s4-1.794 4-4-1.794-4-4-4c-1.103 0-2-.897-2-2s.897-2 2-2 2 .897 2 2h2c0-2.206-1.794-4-4-4s-4 1.794-4 4 1.794 4 4 4c1.103 0 2 .897 2 2s-.897 2-2 2z"/><path d="m13 35c2.206 0 4-1.794 4-4v-6c0-2.206-1.794-4-4-4s-4 1.794-4 4v6c0 2.206 1.794 4 4 4zm-2-10c0-1.103.897-2 2-2s2 .897 2 2v6c0 1.103-.897 2-2 2s-2-.897-2-2z"/><path d="m63 19c0-9.925-8.075-18-18-18-7.819 0-14.471 5.021-16.95 12h-22.05c-2.757 0-5 2.243-5 5v28c0 2.757 2.243 5 5 5h16v2h-5.764c-1.144 0-2.171.636-2.683 1.658l-1.553 3.106v5.236h32v-5.236l-1.553-3.105c-.511-1.023-1.539-1.659-2.683-1.659h-5.764v-2h16c2.757 0 5-2.243 5-5v-12.044c4.82-3.233 8-8.729 8-14.956zm-9.496 13.529-5.057-6.321c.517-.248 1.002-.548 1.45-.896l5.67 5.67c-.644.569-1.333 1.086-2.063 1.547zm-15.712-16.976-6.32-5.057c.461-.73.978-1.419 1.547-2.064l5.67 5.67c-.349.449-.649.934-.897 1.451zm2.31-2.865-5.67-5.67c.645-.569 1.334-1.086 2.064-1.547l5.057 6.321c-.517.248-1.002.548-1.451.896zm4.898.312c3.309 0 6 2.691 6 6s-2.691 6-6 6-6-2.691-6-6 2.691-6 6-6zm6.312 10.898c.349-.448.648-.934.897-1.451l6.32 5.057c-.461.73-.977 1.419-1.547 2.063zm9.688-4.898c0 2.402-.547 4.673-1.5 6.72l-6.633-5.307c.083-.46.133-.93.133-1.413 0-4.411-3.589-8-8-8-.483 0-.953.05-1.413.133l-5.307-6.634c2.047-.952 4.318-1.499 6.72-1.499 8.822 0 16 7.178 16 16zm-30.5-6.72 6.633 5.307c-.083.46-.133.93-.133 1.413 0 4.411 3.589 8 8 8 .483 0 .953-.05 1.413-.133l5.307 6.633c-2.047.953-4.318 1.5-6.72 1.5-8.822 0-16-7.178-16-16 0-2.402.547-4.673 1.5-6.72zm-1.5 14.928v9.792h-22v-18h20c0 2.958.73 5.744 2 8.208zm-12.764 27.792h5.764v2h-7.382l.724-1.447c.17-.341.513-.553.894-.553zm-2.236 6v-2h28v2zm25.764-6c.381 0 .724.212.894.553l.724 1.447h-7.382v-2zm-7.764 2h-8v-6h8zm18-8h-44c-1.654 0-3-1.346-3-3v-3h15v1c0 1.654 1.346 3 3 3h14c1.654 0 3-1.346 3-3v-1h15v3c0 1.654-1.346 3-3 3zm-14-6v1c0 .552-.449 1-1 1h-3v-2zm-6 2h-4v-2h4zm-6 0h-3c-.551 0-1-.448-1-1v-1h4zm29-4h-50v-23c0-1.654 1.346-3 3-3h21.464c-.149.655-.27 1.32-.346 2h-20.118c-1.103 0-2 .897-2 2v18c0 1.103.897 2 2 2h22c1.103 0 2-.897 2-2v-6.711c3.302 4.087 8.348 6.711 14 6.711 2.876 0 5.586-.695 8-1.899z"/><path d="m57 19h2c0-.721-.055-1.444-.165-2.152l-1.977.305c.095.607.142 1.229.142 1.847z"/><path d="m56.421 15.308 1.903-.615c-1.872-5.797-7.227-9.693-13.324-9.693v2c5.227 0 9.816 3.339 11.421 8.308z"/></svg>