<?xml version="1.0" standalone="no"?>
<!DOCTYPE svg PUBLIC "-//W3C//DTD SVG 20010904//EN"
 "http://www.w3.org/TR/2001/REC-SVG-20010904/DTD/svg10.dtd">
<svg version="1.0" xmlns="http://www.w3.org/2000/svg"
 width="64.000000pt" height="64.000000pt" viewBox="0 0 64.000000 64.000000"
 preserveAspectRatio="xMidYMid meet">
<metadata>
Created by potrace 1.16, written by Peter Selinger 2001-2019
</metadata>
<g transform="translate(0.000000,64.000000) scale(0.100000,-0.100000)"
fill="#000000" stroke="none">
<path d="M0 566 c0 -58 3 -75 16 -80 20 -8 588 -8 608 0 13 5 16 22 16 80 l0
74 -320 0 -320 0 0 -74z m610 -6 l0 -50 -290 0 -290 0 0 50 0 50 290 0 290 0
0 -50z"/>
<path d="M452 588 c-19 -19 -14 -46 9 -53 30 -10 58 19 43 43 -14 22 -36 26
-52 10z"/>
<path d="M540 586 c-27 -33 18 -72 48 -42 13 13 14 20 6 34 -15 23 -38 26 -54
8z"/>
<path d="M60 565 c0 -13 26 -15 170 -15 144 0 170 2 170 15 0 13 -26 15 -170
15 -144 0 -170 -2 -170 -15z"/>
<path d="M7 463 c-4 -3 -7 -37 -7 -74 0 -52 4 -68 16 -73 24 -9 597 -7 612 3
9 5 12 28 10 77 l-3 69 -311 3 c-171 1 -313 -1 -317 -5z m603 -73 l0 -50 -290
0 -290 0 0 50 0 50 290 0 290 0 0 -50z"/>
<path d="M450 415 c-19 -23 -8 -50 22 -53 19 -2 28 2 33 18 12 39 -29 66 -55
35z"/>
<path d="M540 415 c-19 -23 -8 -50 22 -53 19 -2 28 2 33 18 12 39 -29 66 -55
35z"/>
<path d="M67 403 c-20 -19 8 -23 163 -23 144 0 170 2 170 15 0 13 -25 15 -163
15 -90 0 -167 -3 -170 -7z"/>
<path d="M4 287 c-3 -8 -4 -43 -2 -78 l3 -64 315 0 315 0 0 75 0 75 -313 3
c-257 2 -313 0 -318 -11z m606 -67 l0 -50 -290 0 -290 0 0 50 0 50 290 0 290
0 0 -50z"/>
<path d="M455 246 c-24 -17 -15 -50 14 -54 39 -6 56 39 22 57 -13 7 -23 6 -36
-3z"/>
<path d="M545 246 c-27 -20 -15 -51 20 -51 23 0 31 5 33 22 4 29 -28 47 -53
29z"/>
<path d="M67 234 c-20 -20 7 -24 164 -24 132 0 170 3 167 13 -4 9 -47 13 -164
15 -88 1 -163 -1 -167 -4z"/>
<path d="M273 111 c-7 -26 -30 -31 -160 -31 -93 0 -113 -3 -113 -15 0 -12 23
-15 122 -18 l123 -3 -122 -2 c-96 -2 -123 -5 -123 -16 0 -10 35 -14 160 -19
230 -8 480 2 480 19 0 10 -29 14 -122 17 l-123 3 123 2 c101 2 122 5 122 17 0
12 -19 15 -112 15 -131 0 -154 5 -161 31 -9 32 -27 21 -27 -16 0 -24 5 -35 15
-35 8 0 15 -7 15 -15 0 -11 -12 -15 -50 -15 -38 0 -50 4 -50 15 0 9 9 15 24
15 29 0 44 18 22 26 -9 3 -16 15 -16 25 0 25 -20 25 -27 0z"/>
</g>
</svg>
